<?xml version="1.0" standalone="no"?>
<!DOCTYPE svg PUBLIC "-//W3C//DTD SVG 1.1//EN" "http://www.w3.org/Graphics/SVG/1.1/DTD/svg11.dtd">
<svg version="1.1" width="1200" height="534" onload="init(evt)" viewBox="0 0 1200 534" xmlns="http://www.w3.org/2000/svg" xmlns:xlink="http://www.w3.org/1999/xlink">
<!-- Flame graph stack visualization. See https://github.com/brendangregg/FlameGraph for latest version, and http://www.brendangregg.com/flamegraphs.html for examples. -->
<!-- NOTES:  -->
<defs>
	<linearGradient id="background" y1="0" y2="1" x1="0" x2="0" >
		<stop stop-color="#eeeeee" offset="5%" />
		<stop stop-color="#eeeeb0" offset="95%" />
	</linearGradient>
</defs>
<style type="text/css">
	text { font-family:Verdana; font-size:12px; fill:rgb(0,0,0); }
	#search, #ignorecase { opacity:0.1; cursor:pointer; }
	#search:hover, #search.show, #ignorecase:hover, #ignorecase.show { opacity:1; }
	#subtitle { text-anchor:middle; font-color:rgb(160,160,160); }
	#title { text-anchor:middle; font-size:17px}
	#unzoom { cursor:pointer; }
	#frames > *:hover { stroke:black; stroke-width:0.5; cursor:pointer; }
	.hide { display:none; }
	.parent { opacity:0.5; }
</style>
<script type="text/ecmascript">
<![CDATA[
	"use strict";
	var details, searchbtn, unzoombtn, matchedtxt, svg, searching, currentSearchTerm, ignorecase, ignorecaseBtn;
	function init(evt) {
		details = document.getElementById("details").firstChild;
		searchbtn = document.getElementById("search");
		ignorecaseBtn = document.getElementById("ignorecase");
		unzoombtn = document.getElementById("unzoom");
		matchedtxt = document.getElementById("matched");
		svg = document.getElementsByTagName("svg")[0];
		searching = 0;
		currentSearchTerm = null;

		// use GET parameters to restore a flamegraphs state.
		var params = get_params();
		if (params.x && params.y)
			zoom(find_group(document.querySelector('[x="' + params.x + '"][y="' + params.y + '"]')));
                if (params.s) search(params.s);
	}

	// event listeners
	window.addEventListener("click", function(e) {
		var target = find_group(e.target);
		if (target) {
			if (target.nodeName == "a") {
				if (e.ctrlKey === false) return;
				e.preventDefault();
			}
			if (target.classList.contains("parent")) unzoom();
			zoom(target);
			if (!document.querySelector('.parent')) {
				clearzoom();
				return;
			}

			// set parameters for zoom state
			var el = target.querySelector("rect");
			if (el && el.attributes && el.attributes.y && el.attributes._orig_x) {
				var params = get_params()
				params.x = el.attributes._orig_x.value;
				params.y = el.attributes.y.value;
				history.replaceState(null, null, parse_params(params));
			}
		}
		else if (e.target.id == "unzoom") clearzoom();
		else if (e.target.id == "search") search_prompt();
		else if (e.target.id == "ignorecase") toggle_ignorecase();
	}, false)

	// mouse-over for info
	// show
	window.addEventListener("mouseover", function(e) {
		var target = find_group(e.target);
		if (target) details.nodeValue = "Function: " + g_to_text(target);
	}, false)

	// clear
	window.addEventListener("mouseout", function(e) {
		var target = find_group(e.target);
		if (target) details.nodeValue = ' ';
	}, false)

	// ctrl-F for search
	// ctrl-I to toggle case-sensitive search
	window.addEventListener("keydown",function (e) {
		if (e.keyCode === 114 || (e.ctrlKey && e.keyCode === 70)) {
			e.preventDefault();
			search_prompt();
		}
		else if (e.ctrlKey && e.keyCode === 73) {
			e.preventDefault();
			toggle_ignorecase();
		}
	}, false)

	// functions
	function get_params() {
		var params = {};
		var paramsarr = window.location.search.substr(1).split('&');
		for (var i = 0; i < paramsarr.length; ++i) {
			var tmp = paramsarr[i].split("=");
			if (!tmp[0] || !tmp[1]) continue;
			params[tmp[0]]  = decodeURIComponent(tmp[1]);
		}
		return params;
	}
	function parse_params(params) {
		var uri = "?";
		for (var key in params) {
			uri += key + '=' + encodeURIComponent(params[key]) + '&';
		}
		if (uri.slice(-1) == "&")
			uri = uri.substring(0, uri.length - 1);
		if (uri == '?')
			uri = window.location.href.split('?')[0];
		return uri;
	}
	function find_child(node, selector) {
		var children = node.querySelectorAll(selector);
		if (children.length) return children[0];
	}
	function find_group(node) {
		var parent = node.parentElement;
		if (!parent) return;
		if (parent.id == "frames") return node;
		return find_group(parent);
	}
	function orig_save(e, attr, val) {
		if (e.attributes["_orig_" + attr] != undefined) return;
		if (e.attributes[attr] == undefined) return;
		if (val == undefined) val = e.attributes[attr].value;
		e.setAttribute("_orig_" + attr, val);
	}
	function orig_load(e, attr) {
		if (e.attributes["_orig_"+attr] == undefined) return;
		e.attributes[attr].value = e.attributes["_orig_" + attr].value;
		e.removeAttribute("_orig_"+attr);
	}
	function g_to_text(e) {
		var text = find_child(e, "title").firstChild.nodeValue;
		return (text)
	}
	function g_to_func(e) {
		var func = g_to_text(e);
		// if there's any manipulation we want to do to the function
		// name before it's searched, do it here before returning.
		return (func);
	}
	function update_text(e) {
		var r = find_child(e, "rect");
		var t = find_child(e, "text");
		var w = parseFloat(r.attributes.width.value) -3;
		var txt = find_child(e, "title").textContent.replace(/\([^(]*\)$/,"");
		t.attributes.x.value = parseFloat(r.attributes.x.value) + 3;

		// Smaller than this size won't fit anything
		if (w < 2 * 12 * 0.59) {
			t.textContent = "";
			return;
		}

		t.textContent = txt;
		// Fit in full text width
		if (/^ *$/.test(txt) || t.getSubStringLength(0, txt.length) < w)
			return;

		for (var x = txt.length - 2; x > 0; x--) {
			if (t.getSubStringLength(0, x + 2) <= w) {
				t.textContent = txt.substring(0, x) + "..";
				return;
			}
		}
		t.textContent = "";
	}

	// zoom
	function zoom_reset(e) {
		if (e.attributes != undefined) {
			orig_load(e, "x");
			orig_load(e, "width");
		}
		if (e.childNodes == undefined) return;
		for (var i = 0, c = e.childNodes; i < c.length; i++) {
			zoom_reset(c[i]);
		}
	}
	function zoom_child(e, x, ratio) {
		if (e.attributes != undefined) {
			if (e.attributes.x != undefined) {
				orig_save(e, "x");
				e.attributes.x.value = (parseFloat(e.attributes.x.value) - x - 10) * ratio + 10;
				if (e.tagName == "text")
					e.attributes.x.value = find_child(e.parentNode, "rect[x]").attributes.x.value + 3;
			}
			if (e.attributes.width != undefined) {
				orig_save(e, "width");
				e.attributes.width.value = parseFloat(e.attributes.width.value) * ratio;
			}
		}

		if (e.childNodes == undefined) return;
		for (var i = 0, c = e.childNodes; i < c.length; i++) {
			zoom_child(c[i], x - 10, ratio);
		}
	}
	function zoom_parent(e) {
		if (e.attributes) {
			if (e.attributes.x != undefined) {
				orig_save(e, "x");
				e.attributes.x.value = 10;
			}
			if (e.attributes.width != undefined) {
				orig_save(e, "width");
				e.attributes.width.value = parseInt(svg.width.baseVal.value) - (10 * 2);
			}
		}
		if (e.childNodes == undefined) return;
		for (var i = 0, c = e.childNodes; i < c.length; i++) {
			zoom_parent(c[i]);
		}
	}
	function zoom(node) {
		var attr = find_child(node, "rect").attributes;
		var width = parseFloat(attr.width.value);
		var xmin = parseFloat(attr.x.value);
		var xmax = parseFloat(xmin + width);
		var ymin = parseFloat(attr.y.value);
		var ratio = (svg.width.baseVal.value - 2 * 10) / width;

		// XXX: Workaround for JavaScript float issues (fix me)
		var fudge = 0.0001;

		unzoombtn.classList.remove("hide");

		var el = document.getElementById("frames").children;
		for (var i = 0; i < el.length; i++) {
			var e = el[i];
			var a = find_child(e, "rect").attributes;
			var ex = parseFloat(a.x.value);
			var ew = parseFloat(a.width.value);
			var upstack;
			// Is it an ancestor
			if (0 == 0) {
				upstack = parseFloat(a.y.value) > ymin;
			} else {
				upstack = parseFloat(a.y.value) < ymin;
			}
			if (upstack) {
				// Direct ancestor
				if (ex <= xmin && (ex+ew+fudge) >= xmax) {
					e.classList.add("parent");
					zoom_parent(e);
					update_text(e);
				}
				// not in current path
				else
					e.classList.add("hide");
			}
			// Children maybe
			else {
				// no common path
				if (ex < xmin || ex + fudge >= xmax) {
					e.classList.add("hide");
				}
				else {
					zoom_child(e, xmin, ratio);
					update_text(e);
				}
			}
		}
		search();
	}
	function unzoom() {
		unzoombtn.classList.add("hide");
		var el = document.getElementById("frames").children;
		for(var i = 0; i < el.length; i++) {
			el[i].classList.remove("parent");
			el[i].classList.remove("hide");
			zoom_reset(el[i]);
			update_text(el[i]);
		}
		search();
	}
	function clearzoom() {
		unzoom();

		// remove zoom state
		var params = get_params();
		if (params.x) delete params.x;
		if (params.y) delete params.y;
		history.replaceState(null, null, parse_params(params));
	}

	// search
	function toggle_ignorecase() {
		ignorecase = !ignorecase;
		if (ignorecase) {
			ignorecaseBtn.classList.add("show");
		} else {
			ignorecaseBtn.classList.remove("show");
		}
		reset_search();
		search();
	}
	function reset_search() {
		var el = document.querySelectorAll("#frames rect");
		for (var i = 0; i < el.length; i++) {
			orig_load(el[i], "fill")
		}
		var params = get_params();
		delete params.s;
		history.replaceState(null, null, parse_params(params));
	}
	function search_prompt() {
		if (!searching) {
			var term = prompt("Enter a search term (regexp " +
			    "allowed, eg: ^ext4_)"
			    + (ignorecase ? ", ignoring case" : "")
			    + "\nPress Ctrl-i to toggle case sensitivity", "");
			if (term != null) search(term);
		} else {
			reset_search();
			searching = 0;
			currentSearchTerm = null;
			searchbtn.classList.remove("show");
			searchbtn.firstChild.nodeValue = "Search"
			matchedtxt.classList.add("hide");
			matchedtxt.firstChild.nodeValue = ""
		}
	}
	function search(term) {
		if (term) currentSearchTerm = term;

		var re = new RegExp(currentSearchTerm, ignorecase ? 'i' : '');
		var el = document.getElementById("frames").children;
		var matches = new Object();
		var maxwidth = 0;
		for (var i = 0; i < el.length; i++) {
			var e = el[i];
			var func = g_to_func(e);
			var rect = find_child(e, "rect");
			if (func == null || rect == null)
				continue;

			// Save max width. Only works as we have a root frame
			var w = parseFloat(rect.attributes.width.value);
			if (w > maxwidth)
				maxwidth = w;

			if (func.match(re)) {
				// highlight
				var x = parseFloat(rect.attributes.x.value);
				orig_save(rect, "fill");
				rect.attributes.fill.value = "rgb(230,0,230)";

				// remember matches
				if (matches[x] == undefined) {
					matches[x] = w;
				} else {
					if (w > matches[x]) {
						// overwrite with parent
						matches[x] = w;
					}
				}
				searching = 1;
			}
		}
		if (!searching)
			return;
		var params = get_params();
		params.s = currentSearchTerm;
		history.replaceState(null, null, parse_params(params));

		searchbtn.classList.add("show");
		searchbtn.firstChild.nodeValue = "Reset Search";

		// calculate percent matched, excluding vertical overlap
		var count = 0;
		var lastx = -1;
		var lastw = 0;
		var keys = Array();
		for (k in matches) {
			if (matches.hasOwnProperty(k))
				keys.push(k);
		}
		// sort the matched frames by their x location
		// ascending, then width descending
		keys.sort(function(a, b){
			return a - b;
		});
		// Step through frames saving only the biggest bottom-up frames
		// thanks to the sort order. This relies on the tree property
		// where children are always smaller than their parents.
		var fudge = 0.0001;	// JavaScript floating point
		for (var k in keys) {
			var x = parseFloat(keys[k]);
			var w = matches[keys[k]];
			if (x >= lastx + lastw - fudge) {
				count += w;
				lastx = x;
				lastw = w;
			}
		}
		// display matched percent
		matchedtxt.classList.remove("hide");
		var pct = 100 * count / maxwidth;
		if (pct != 100) pct = pct.toFixed(1)
		matchedtxt.firstChild.nodeValue = "Matched: " + pct + "%";
	}
]]>
</script>
<rect x="0.0" y="0" width="1200.0" height="534.0" fill="url(#background)"  />
<text id="title" x="600.00" y="24" >Flame Graph</text>
<text id="details" x="10.00" y="517" > </text>
<text id="unzoom" x="10.00" y="24" class="hide">Reset Zoom</text>
<text id="search" x="1090.00" y="24" >Search</text>
<text id="ignorecase" x="1174.00" y="24" >ic</text>
<text id="matched" x="1090.00" y="517" > </text>
<g id="frames">
<g >
<title>rcu_all_qs (1 samples, 8.33%)</title><rect x="403.3" y="341" width="98.4" height="15.0" fill="rgb(233,28,50)" rx="2" ry="2" />
<text  x="406.33" y="351.5" >rcu_all_qs</text>
</g>
<g >
<title>vfs_read (1 samples, 8.33%)</title><rect x="305.0" y="85" width="98.3" height="15.0" fill="rgb(232,105,46)" rx="2" ry="2" />
<text  x="308.00" y="95.5" >vfs_read</text>
</g>
<g >
<title>kworker/u2:1 (1 samples, 8.33%)</title><rect x="698.3" y="469" width="98.4" height="15.0" fill="rgb(235,1,40)" rx="2" ry="2" />
<text  x="701.33" y="479.5" >kworker/u2:1</text>
</g>
<g >
<title>worker_thread (2 samples, 16.67%)</title><rect x="501.7" y="421" width="196.6" height="15.0" fill="rgb(205,112,37)" rx="2" ry="2" />
<text  x="504.67" y="431.5" >worker_thread</text>
</g>
<g >
<title>crond (2 samples, 16.67%)</title><rect x="10.0" y="469" width="196.7" height="15.0" fill="rgb(243,130,10)" rx="2" ry="2" />
<text  x="13.00" y="479.5" >crond</text>
</g>
<g >
<title>cirrus_pipe_update (1 samples, 8.33%)</title><rect x="108.3" y="277" width="98.4" height="15.0" fill="rgb(216,155,52)" rx="2" ry="2" />
<text  x="111.33" y="287.5" >cirrus_pipe..</text>
</g>
<g >
<title>[unknown] (1 samples, 8.33%)</title><rect x="305.0" y="245" width="98.3" height="15.0" fill="rgb(230,84,37)" rx="2" ry="2" />
<text  x="308.00" y="255.5" >[unknown]</text>
</g>
<g >
<title>ext4_writepages (1 samples, 8.33%)</title><rect x="698.3" y="293" width="98.4" height="15.0" fill="rgb(228,5,42)" rx="2" ry="2" />
<text  x="701.33" y="303.5" >ext4_writep..</text>
</g>
<g >
<title>kthread (2 samples, 16.67%)</title><rect x="501.7" y="437" width="196.6" height="15.0" fill="rgb(206,207,47)" rx="2" ry="2" />
<text  x="504.67" y="447.5" >kthread</text>
</g>
<g >
<title>wb_writeback (1 samples, 8.33%)</title><rect x="698.3" y="373" width="98.4" height="15.0" fill="rgb(237,79,43)" rx="2" ry="2" />
<text  x="701.33" y="383.5" >wb_writeback</text>
</g>
<g >
<title>__es_tree_search.isra.15 (1 samples, 8.33%)</title><rect x="698.3" y="213" width="98.4" height="15.0" fill="rgb(214,178,21)" rx="2" ry="2" />
<text  x="701.33" y="223.5" >__es_tree_s..</text>
</g>
<g >
<title>do_syscall_64 (1 samples, 8.33%)</title><rect x="403.3" y="421" width="98.4" height="15.0" fill="rgb(228,197,52)" rx="2" ry="2" />
<text  x="406.33" y="431.5" >do_syscall_64</text>
</g>
<g >
<title>vmap (1 samples, 8.33%)</title><rect x="600.0" y="325" width="98.3" height="15.0" fill="rgb(218,17,14)" rx="2" ry="2" />
<text  x="603.00" y="335.5" >vmap</text>
</g>
<g >
<title>do_syscall_64 (1 samples, 8.33%)</title><rect x="305.0" y="117" width="98.3" height="15.0" fill="rgb(225,77,12)" rx="2" ry="2" />
<text  x="308.00" y="127.5" >do_syscall_64</text>
</g>
<g >
<title>unmap_region (1 samples, 8.33%)</title><rect x="10.0" y="325" width="98.3" height="15.0" fill="rgb(248,152,4)" rx="2" ry="2" />
<text  x="13.00" y="335.5" >unmap_region</text>
</g>
<g >
<title>remove_vm_area (1 samples, 8.33%)</title><rect x="108.3" y="213" width="98.4" height="15.0" fill="rgb(242,9,43)" rx="2" ry="2" />
<text  x="111.33" y="223.5" >remove_vm_a..</text>
</g>
<g >
<title>[unknown] (1 samples, 8.33%)</title><rect x="305.0" y="373" width="98.3" height="15.0" fill="rgb(207,152,37)" rx="2" ry="2" />
<text  x="308.00" y="383.5" >[unknown]</text>
</g>
<g >
<title>ret_from_fork (1 samples, 8.33%)</title><rect x="698.3" y="453" width="98.4" height="15.0" fill="rgb(213,194,53)" rx="2" ry="2" />
<text  x="701.33" y="463.5" >ret_from_fork</text>
</g>
<g >
<title>ksys_read (1 samples, 8.33%)</title><rect x="305.0" y="101" width="98.3" height="15.0" fill="rgb(224,34,12)" rx="2" ry="2" />
<text  x="308.00" y="111.5" >ksys_read</text>
</g>
<g >
<title>blk_execute_rq (1 samples, 8.33%)</title><rect x="501.7" y="309" width="98.3" height="15.0" fill="rgb(213,0,51)" rx="2" ry="2" />
<text  x="504.67" y="319.5" >blk_execute..</text>
</g>
<g >
<title>writeback_sb_inodes (1 samples, 8.33%)</title><rect x="698.3" y="341" width="98.4" height="15.0" fill="rgb(226,68,22)" rx="2" ry="2" />
<text  x="701.33" y="351.5" >writeback_s..</text>
</g>
<g >
<title>free_pgtables (1 samples, 8.33%)</title><rect x="10.0" y="309" width="98.3" height="15.0" fill="rgb(250,176,34)" rx="2" ry="2" />
<text  x="13.00" y="319.5" >free_pgtables</text>
</g>
<g >
<title>ata_scsi_queuecmd (1 samples, 8.33%)</title><rect x="501.7" y="181" width="98.3" height="15.0" fill="rgb(229,128,12)" rx="2" ry="2" />
<text  x="504.67" y="191.5" >ata_scsi_qu..</text>
</g>
<g >
<title>[unknown] (1 samples, 8.33%)</title><rect x="305.0" y="165" width="98.3" height="15.0" fill="rgb(253,66,39)" rx="2" ry="2" />
<text  x="308.00" y="175.5" >[unknown]</text>
</g>
<g >
<title>do_sys_open (1 samples, 8.33%)</title><rect x="403.3" y="405" width="98.4" height="15.0" fill="rgb(242,9,36)" rx="2" ry="2" />
<text  x="406.33" y="415.5" >do_sys_open</text>
</g>
<g >
<title>[unknown] (1 samples, 8.33%)</title><rect x="305.0" y="309" width="98.3" height="15.0" fill="rgb(239,121,30)" rx="2" ry="2" />
<text  x="308.00" y="319.5" >[unknown]</text>
</g>
<g >
<title>process_one_work (2 samples, 16.67%)</title><rect x="501.7" y="405" width="196.6" height="15.0" fill="rgb(245,46,23)" rx="2" ry="2" />
<text  x="504.67" y="415.5" >process_one_work</text>
</g>
<g >
<title>vm_mmap_pgoff (1 samples, 8.33%)</title><rect x="10.0" y="389" width="98.3" height="15.0" fill="rgb(251,51,27)" rx="2" ry="2" />
<text  x="13.00" y="399.5" >vm_mmap_pgoff</text>
</g>
<g >
<title>__writeback_inodes_wb (1 samples, 8.33%)</title><rect x="698.3" y="357" width="98.4" height="15.0" fill="rgb(246,177,46)" rx="2" ry="2" />
<text  x="701.33" y="367.5" >__writeback..</text>
</g>
<g >
<title>[unknown] (1 samples, 8.33%)</title><rect x="305.0" y="453" width="98.3" height="15.0" fill="rgb(227,101,39)" rx="2" ry="2" />
<text  x="308.00" y="463.5" >[unknown]</text>
</g>
<g >
<title>worker_thread (1 samples, 8.33%)</title><rect x="108.3" y="405" width="98.4" height="15.0" fill="rgb(206,26,46)" rx="2" ry="2" />
<text  x="111.33" y="415.5" >worker_thread</text>
</g>
<g >
<title>[unknown] (1 samples, 8.33%)</title><rect x="1091.7" y="421" width="98.3" height="15.0" fill="rgb(227,45,35)" rx="2" ry="2" />
<text  x="1094.67" y="431.5" >[unknown]</text>
</g>
<g >
<title>__read (1 samples, 8.33%)</title><rect x="305.0" y="149" width="98.3" height="15.0" fill="rgb(248,45,39)" rx="2" ry="2" />
<text  x="308.00" y="159.5" >__read</text>
</g>
<g >
<title>__es_remove_extent (1 samples, 8.33%)</title><rect x="698.3" y="245" width="98.4" height="15.0" fill="rgb(244,162,17)" rx="2" ry="2" />
<text  x="701.33" y="255.5" >__es_remove..</text>
</g>
<g >
<title>pthread_mutex_lock (1 samples, 8.33%)</title><rect x="206.7" y="453" width="98.3" height="15.0" fill="rgb(238,3,53)" rx="2" ry="2" />
<text  x="209.67" y="463.5" >pthread_mut..</text>
</g>
<g >
<title>kmem_cache_alloc (1 samples, 8.33%)</title><rect x="403.3" y="373" width="98.4" height="15.0" fill="rgb(238,187,19)" rx="2" ry="2" />
<text  x="406.33" y="383.5" >kmem_cache_..</text>
</g>
<g >
<title>drm_client_buffer_vmap (1 samples, 8.33%)</title><rect x="600.0" y="373" width="98.3" height="15.0" fill="rgb(226,169,10)" rx="2" ry="2" />
<text  x="603.00" y="383.5" >drm_client_..</text>
</g>
<g >
<title>ext4_es_insert_extent (1 samples, 8.33%)</title><rect x="698.3" y="261" width="98.4" height="15.0" fill="rgb(252,105,8)" rx="2" ry="2" />
<text  x="701.33" y="271.5" >ext4_es_ins..</text>
</g>
<g >
<title>blk_mq_dispatch_rq_list (1 samples, 8.33%)</title><rect x="501.7" y="213" width="98.3" height="15.0" fill="rgb(213,199,43)" rx="2" ry="2" />
<text  x="504.67" y="223.5" >blk_mq_disp..</text>
</g>
<g >
<title>[unknown] (1 samples, 8.33%)</title><rect x="305.0" y="181" width="98.3" height="15.0" fill="rgb(207,218,6)" rx="2" ry="2" />
<text  x="308.00" y="191.5" >[unknown]</text>
</g>
<g >
<title>sr_check_events (1 samples, 8.33%)</title><rect x="501.7" y="341" width="98.3" height="15.0" fill="rgb(215,103,37)" rx="2" ry="2" />
<text  x="504.67" y="351.5" >sr_check_ev..</text>
</g>
<g >
<title>entry_SYSCALL_64_after_hwframe (1 samples, 8.33%)</title><rect x="10.0" y="437" width="98.3" height="15.0" fill="rgb(210,15,40)" rx="2" ry="2" />
<text  x="13.00" y="447.5" >entry_SYSCA..</text>
</g>
<g >
<title>drm_gem_vmap (1 samples, 8.33%)</title><rect x="600.0" y="357" width="98.3" height="15.0" fill="rgb(206,161,37)" rx="2" ry="2" />
<text  x="603.00" y="367.5" >drm_gem_vmap</text>
</g>
<g >
<title>blk_mq_sched_dispatch_requests (1 samples, 8.33%)</title><rect x="501.7" y="245" width="98.3" height="15.0" fill="rgb(249,109,5)" rx="2" ry="2" />
<text  x="504.67" y="255.5" >blk_mq_sche..</text>
</g>
<g >
<title>disk_check_events (1 samples, 8.33%)</title><rect x="501.7" y="389" width="98.3" height="15.0" fill="rgb(250,229,46)" rx="2" ry="2" />
<text  x="504.67" y="399.5" >disk_check_..</text>
</g>
<g >
<title>[unknown] (1 samples, 8.33%)</title><rect x="305.0" y="437" width="98.3" height="15.0" fill="rgb(244,110,9)" rx="2" ry="2" />
<text  x="308.00" y="447.5" >[unknown]</text>
</g>
<g >
<title>drm_atomic_helper_commit_tail (1 samples, 8.33%)</title><rect x="108.3" y="309" width="98.4" height="15.0" fill="rgb(249,9,48)" rx="2" ry="2" />
<text  x="111.33" y="319.5" >drm_atomic_..</text>
</g>
<g >
<title>__blk_mq_run_hw_queue (1 samples, 8.33%)</title><rect x="501.7" y="261" width="98.3" height="15.0" fill="rgb(232,198,25)" rx="2" ry="2" />
<text  x="504.67" y="271.5" >__blk_mq_ru..</text>
</g>
<g >
<title>ret_from_fork (1 samples, 8.33%)</title><rect x="108.3" y="437" width="98.4" height="15.0" fill="rgb(248,202,22)" rx="2" ry="2" />
<text  x="111.33" y="447.5" >ret_from_fork</text>
</g>
<g >
<title>kthread (1 samples, 8.33%)</title><rect x="698.3" y="437" width="98.4" height="15.0" fill="rgb(238,25,21)" rx="2" ry="2" />
<text  x="701.33" y="447.5" >kthread</text>
</g>
<g >
<title>wb_workfn (1 samples, 8.33%)</title><rect x="698.3" y="389" width="98.4" height="15.0" fill="rgb(248,79,7)" rx="2" ry="2" />
<text  x="701.33" y="399.5" >wb_workfn</text>
</g>
<g >
<title>sshd (3 samples, 25.00%)</title><rect x="895.0" y="469" width="295.0" height="15.0" fill="rgb(211,9,37)" rx="2" ry="2" />
<text  x="898.00" y="479.5" >sshd</text>
</g>
<g >
<title>drm_atomic_helper_commit_planes (1 samples, 8.33%)</title><rect x="108.3" y="293" width="98.4" height="15.0" fill="rgb(246,75,22)" rx="2" ry="2" />
<text  x="111.33" y="303.5" >drm_atomic_..</text>
</g>
<g >
<title>_raw_spin_unlock_irqrestore (1 samples, 8.33%)</title><rect x="501.7" y="165" width="98.3" height="15.0" fill="rgb(209,113,31)" rx="2" ry="2" />
<text  x="504.67" y="175.5" >_raw_spin_u..</text>
</g>
<g >
<title>_cond_resched (1 samples, 8.33%)</title><rect x="403.3" y="357" width="98.4" height="15.0" fill="rgb(225,163,37)" rx="2" ry="2" />
<text  x="406.33" y="367.5" >_cond_resched</text>
</g>
<g >
<title>[unknown] (1 samples, 8.33%)</title><rect x="796.7" y="437" width="98.3" height="15.0" fill="rgb(217,191,44)" rx="2" ry="2" />
<text  x="799.67" y="447.5" >[unknown]</text>
</g>
<g >
<title>unmap_kernel_range_noflush (1 samples, 8.33%)</title><rect x="108.3" y="181" width="98.4" height="15.0" fill="rgb(249,109,0)" rx="2" ry="2" />
<text  x="111.33" y="191.5" >unmap_kerne..</text>
</g>
<g >
<title>drm_atomic_helper_dirtyfb (1 samples, 8.33%)</title><rect x="108.3" y="357" width="98.4" height="15.0" fill="rgb(210,20,35)" rx="2" ry="2" />
<text  x="111.33" y="367.5" >drm_atomic_..</text>
</g>
<g >
<title>drm_fb_helper_damage_work (1 samples, 8.33%)</title><rect x="600.0" y="389" width="98.3" height="15.0" fill="rgb(206,54,44)" rx="2" ry="2" />
<text  x="603.00" y="399.5" >drm_fb_help..</text>
</g>
<g >
<title>__es_tree_search.isra.15 (1 samples, 8.33%)</title><rect x="698.3" y="229" width="98.4" height="15.0" fill="rgb(254,8,24)" rx="2" ry="2" />
<text  x="701.33" y="239.5" >__es_tree_s..</text>
</g>
<g >
<title>ext4_map_blocks (1 samples, 8.33%)</title><rect x="698.3" y="277" width="98.4" height="15.0" fill="rgb(216,227,38)" rx="2" ry="2" />
<text  x="701.33" y="287.5" >ext4_map_bl..</text>
</g>
<g >
<title>[unknown] (1 samples, 8.33%)</title><rect x="796.7" y="453" width="98.3" height="15.0" fill="rgb(243,227,0)" rx="2" ry="2" />
<text  x="799.67" y="463.5" >[unknown]</text>
</g>
<g >
<title>[unknown] (1 samples, 8.33%)</title><rect x="305.0" y="277" width="98.3" height="15.0" fill="rgb(242,110,10)" rx="2" ry="2" />
<text  x="308.00" y="287.5" >[unknown]</text>
</g>
<g >
<title>map_kernel_range_noflush (1 samples, 8.33%)</title><rect x="600.0" y="293" width="98.3" height="15.0" fill="rgb(234,215,3)" rx="2" ry="2" />
<text  x="603.00" y="303.5" >map_kernel_..</text>
</g>
<g >
<title>all (12 samples, 100%)</title><rect x="10.0" y="485" width="1180.0" height="15.0" fill="rgb(247,65,12)" rx="2" ry="2" />
<text  x="13.00" y="495.5" ></text>
</g>
<g >
<title>__check_object_size (1 samples, 8.33%)</title><rect x="305.0" y="53" width="98.3" height="15.0" fill="rgb(237,61,51)" rx="2" ry="2" />
<text  x="308.00" y="63.5" >__check_obj..</text>
</g>
<g >
<title>drm_atomic_helper_commit (1 samples, 8.33%)</title><rect x="108.3" y="341" width="98.4" height="15.0" fill="rgb(225,206,13)" rx="2" ry="2" />
<text  x="111.33" y="351.5" >drm_atomic_..</text>
</g>
<g >
<title>do_syscall_64 (1 samples, 8.33%)</title><rect x="10.0" y="421" width="98.3" height="15.0" fill="rgb(241,140,11)" rx="2" ry="2" />
<text  x="13.00" y="431.5" >do_syscall_64</text>
</g>
<g >
<title>do_mmap (1 samples, 8.33%)</title><rect x="10.0" y="373" width="98.3" height="15.0" fill="rgb(223,42,22)" rx="2" ry="2" />
<text  x="13.00" y="383.5" >do_mmap</text>
</g>
<g >
<title>[unknown] (1 samples, 8.33%)</title><rect x="305.0" y="389" width="98.3" height="15.0" fill="rgb(252,12,4)" rx="2" ry="2" />
<text  x="308.00" y="399.5" >[unknown]</text>
</g>
<g >
<title>drm_gem_shmem_vunmap (1 samples, 8.33%)</title><rect x="108.3" y="245" width="98.4" height="15.0" fill="rgb(227,105,4)" rx="2" ry="2" />
<text  x="111.33" y="255.5" >drm_gem_shm..</text>
</g>
<g >
<title>cdrom_check_events (1 samples, 8.33%)</title><rect x="501.7" y="357" width="98.3" height="15.0" fill="rgb(227,141,23)" rx="2" ry="2" />
<text  x="504.67" y="367.5" >cdrom_check..</text>
</g>
<g >
<title>sr_block_check_events (1 samples, 8.33%)</title><rect x="501.7" y="373" width="98.3" height="15.0" fill="rgb(227,13,26)" rx="2" ry="2" />
<text  x="504.67" y="383.5" >sr_block_ch..</text>
</g>
<g >
<title>kworker/0:4 (1 samples, 8.33%)</title><rect x="108.3" y="453" width="98.4" height="15.0" fill="rgb(241,9,39)" rx="2" ry="2" />
<text  x="111.33" y="463.5" >kworker/0:4</text>
</g>
<g >
<title>[unknown] (1 samples, 8.33%)</title><rect x="305.0" y="325" width="98.3" height="15.0" fill="rgb(235,109,25)" rx="2" ry="2" />
<text  x="308.00" y="335.5" >[unknown]</text>
</g>
<g >
<title>[unknown] (1 samples, 8.33%)</title><rect x="305.0" y="229" width="98.3" height="15.0" fill="rgb(215,144,1)" rx="2" ry="2" />
<text  x="308.00" y="239.5" >[unknown]</text>
</g>
<g >
<title>__writeback_single_inode (1 samples, 8.33%)</title><rect x="698.3" y="325" width="98.4" height="15.0" fill="rgb(224,82,24)" rx="2" ry="2" />
<text  x="701.33" y="335.5" >__writeback..</text>
</g>
<g >
<title>[unknown] (1 samples, 8.33%)</title><rect x="10.0" y="453" width="98.3" height="15.0" fill="rgb(212,140,25)" rx="2" ry="2" />
<text  x="13.00" y="463.5" >[unknown]</text>
</g>
<g >
<title>__do_munmap (1 samples, 8.33%)</title><rect x="10.0" y="341" width="98.3" height="15.0" fill="rgb(207,24,32)" rx="2" ry="2" />
<text  x="13.00" y="351.5" >__do_munmap</text>
</g>
<g >
<title>rcu_all_qs (1 samples, 8.33%)</title><rect x="403.3" y="325" width="98.4" height="15.0" fill="rgb(246,178,35)" rx="2" ry="2" />
<text  x="406.33" y="335.5" >rcu_all_qs</text>
</g>
<g >
<title>getname_flags (1 samples, 8.33%)</title><rect x="403.3" y="389" width="98.4" height="15.0" fill="rgb(253,0,5)" rx="2" ry="2" />
<text  x="406.33" y="399.5" >getname_flags</text>
</g>
<g >
<title>entry_SYSCALL_64_after_hwframe (1 samples, 8.33%)</title><rect x="305.0" y="133" width="98.3" height="15.0" fill="rgb(209,180,42)" rx="2" ry="2" />
<text  x="308.00" y="143.5" >entry_SYSCA..</text>
</g>
<g >
<title>up_write (1 samples, 8.33%)</title><rect x="10.0" y="277" width="98.3" height="15.0" fill="rgb(214,46,38)" rx="2" ry="2" />
<text  x="13.00" y="287.5" >up_write</text>
</g>
<g >
<title>[unknown] (3 samples, 25.00%)</title><rect x="895.0" y="437" width="295.0" height="15.0" fill="rgb(214,72,49)" rx="2" ry="2" />
<text  x="898.00" y="447.5" >[unknown]</text>
</g>
<g >
<title>mmap_region (1 samples, 8.33%)</title><rect x="10.0" y="357" width="98.3" height="15.0" fill="rgb(223,204,29)" rx="2" ry="2" />
<text  x="13.00" y="367.5" >mmap_region</text>
</g>
<g >
<title>_raw_spin_unlock_irqrestore (1 samples, 8.33%)</title><rect x="501.7" y="149" width="98.3" height="15.0" fill="rgb(231,29,37)" rx="2" ry="2" />
<text  x="504.67" y="159.5" >_raw_spin_u..</text>
</g>
<g >
<title>unmap_kernel_range_noflush (1 samples, 8.33%)</title><rect x="108.3" y="197" width="98.4" height="15.0" fill="rgb(235,119,41)" rx="2" ry="2" />
<text  x="111.33" y="207.5" >unmap_kerne..</text>
</g>
<g >
<title>commit_tail (1 samples, 8.33%)</title><rect x="108.3" y="325" width="98.4" height="15.0" fill="rgb(229,59,26)" rx="2" ry="2" />
<text  x="111.33" y="335.5" >commit_tail</text>
</g>
<g >
<title>up_write (1 samples, 8.33%)</title><rect x="10.0" y="293" width="98.3" height="15.0" fill="rgb(237,208,18)" rx="2" ry="2" />
<text  x="13.00" y="303.5" >up_write</text>
</g>
<g >
<title>scsi_queue_rq (1 samples, 8.33%)</title><rect x="501.7" y="197" width="98.3" height="15.0" fill="rgb(226,36,22)" rx="2" ry="2" />
<text  x="504.67" y="207.5" >scsi_queue_rq</text>
</g>
<g >
<title>[unknown] (3 samples, 25.00%)</title><rect x="895.0" y="453" width="295.0" height="15.0" fill="rgb(219,138,11)" rx="2" ry="2" />
<text  x="898.00" y="463.5" >[unknown]</text>
</g>
<g >
<title>[unknown] (1 samples, 8.33%)</title><rect x="305.0" y="421" width="98.3" height="15.0" fill="rgb(250,179,30)" rx="2" ry="2" />
<text  x="308.00" y="431.5" >[unknown]</text>
</g>
<g >
<title>dbus-daemon (1 samples, 8.33%)</title><rect x="206.7" y="469" width="98.3" height="15.0" fill="rgb(208,56,5)" rx="2" ry="2" />
<text  x="209.67" y="479.5" >dbus-daemon</text>
</g>
<g >
<title>[unknown] (1 samples, 8.33%)</title><rect x="305.0" y="197" width="98.3" height="15.0" fill="rgb(217,31,43)" rx="2" ry="2" />
<text  x="308.00" y="207.5" >[unknown]</text>
</g>
<g >
<title>do_writepages (1 samples, 8.33%)</title><rect x="698.3" y="309" width="98.4" height="15.0" fill="rgb(212,166,23)" rx="2" ry="2" />
<text  x="701.33" y="319.5" >do_writepages</text>
</g>
<g >
<title>sh (1 samples, 8.33%)</title><rect x="796.7" y="469" width="98.3" height="15.0" fill="rgb(217,142,5)" rx="2" ry="2" />
<text  x="799.67" y="479.5" >sh</text>
</g>
<g >
<title>cirrus_fb_blit_rect (1 samples, 8.33%)</title><rect x="108.3" y="261" width="98.4" height="15.0" fill="rgb(218,88,10)" rx="2" ry="2" />
<text  x="111.33" y="271.5" >cirrus_fb_b..</text>
</g>
<g >
<title>ksys_mmap_pgoff (1 samples, 8.33%)</title><rect x="10.0" y="405" width="98.3" height="15.0" fill="rgb(209,20,14)" rx="2" ry="2" />
<text  x="13.00" y="415.5" >ksys_mmap_p..</text>
</g>
<g >
<title>kthread (1 samples, 8.33%)</title><rect x="108.3" y="421" width="98.4" height="15.0" fill="rgb(206,59,11)" rx="2" ry="2" />
<text  x="111.33" y="431.5" >kthread</text>
</g>
<g >
<title>__blk_mq_sched_dispatch_requests (1 samples, 8.33%)</title><rect x="501.7" y="229" width="98.3" height="15.0" fill="rgb(238,37,44)" rx="2" ry="2" />
<text  x="504.67" y="239.5" >__blk_mq_sc..</text>
</g>
<g >
<title>process_one_work (1 samples, 8.33%)</title><rect x="108.3" y="389" width="98.4" height="15.0" fill="rgb(254,171,50)" rx="2" ry="2" />
<text  x="111.33" y="399.5" >process_one..</text>
</g>
<g >
<title>__blk_mq_delay_run_hw_queue (1 samples, 8.33%)</title><rect x="501.7" y="277" width="98.3" height="15.0" fill="rgb(235,18,31)" rx="2" ry="2" />
<text  x="504.67" y="287.5" >__blk_mq_de..</text>
</g>
<g >
<title>[unknown] (1 samples, 8.33%)</title><rect x="305.0" y="213" width="98.3" height="15.0" fill="rgb(211,46,24)" rx="2" ry="2" />
<text  x="308.00" y="223.5" >[unknown]</text>
</g>
<g >
<title>kworker/0:5 (2 samples, 16.67%)</title><rect x="501.7" y="469" width="196.6" height="15.0" fill="rgb(254,6,46)" rx="2" ry="2" />
<text  x="504.67" y="479.5" >kworker/0:5</text>
</g>
<g >
<title>__scsi_execute (1 samples, 8.33%)</title><rect x="501.7" y="325" width="98.3" height="15.0" fill="rgb(250,0,17)" rx="2" ry="2" />
<text  x="504.67" y="335.5" >__scsi_exec..</text>
</g>
<g >
<title>drm_gem_shmem_vmap (1 samples, 8.33%)</title><rect x="600.0" y="341" width="98.3" height="15.0" fill="rgb(223,181,8)" rx="2" ry="2" />
<text  x="603.00" y="351.5" >drm_gem_shm..</text>
</g>
<g >
<title>ret_from_fork (2 samples, 16.67%)</title><rect x="501.7" y="453" width="196.6" height="15.0" fill="rgb(210,168,43)" rx="2" ry="2" />
<text  x="504.67" y="463.5" >ret_from_fork</text>
</g>
<g >
<title>process_one_work (1 samples, 8.33%)</title><rect x="698.3" y="405" width="98.4" height="15.0" fill="rgb(239,124,19)" rx="2" ry="2" />
<text  x="701.33" y="415.5" >process_one..</text>
</g>
<g >
<title>[unknown] (1 samples, 8.33%)</title><rect x="305.0" y="405" width="98.3" height="15.0" fill="rgb(224,13,0)" rx="2" ry="2" />
<text  x="308.00" y="415.5" >[unknown]</text>
</g>
<g >
<title>drm_fb_helper_damage_work (1 samples, 8.33%)</title><rect x="108.3" y="373" width="98.4" height="15.0" fill="rgb(217,63,26)" rx="2" ry="2" />
<text  x="111.33" y="383.5" >drm_fb_help..</text>
</g>
<g >
<title>[unknown] (1 samples, 8.33%)</title><rect x="305.0" y="341" width="98.3" height="15.0" fill="rgb(210,215,46)" rx="2" ry="2" />
<text  x="308.00" y="351.5" >[unknown]</text>
</g>
<g >
<title>map_kernel_range_noflush (1 samples, 8.33%)</title><rect x="600.0" y="309" width="98.3" height="15.0" fill="rgb(230,66,24)" rx="2" ry="2" />
<text  x="603.00" y="319.5" >map_kernel_..</text>
</g>
<g >
<title>blk_mq_sched_insert_request (1 samples, 8.33%)</title><rect x="501.7" y="293" width="98.3" height="15.0" fill="rgb(214,33,38)" rx="2" ry="2" />
<text  x="504.67" y="303.5" >blk_mq_sche..</text>
</g>
<g >
<title>entry_SYSCALL_64_after_hwframe (1 samples, 8.33%)</title><rect x="403.3" y="437" width="98.4" height="15.0" fill="rgb(241,180,36)" rx="2" ry="2" />
<text  x="406.33" y="447.5" >entry_SYSCA..</text>
</g>
<g >
<title>__check_object_size (1 samples, 8.33%)</title><rect x="305.0" y="37" width="98.3" height="15.0" fill="rgb(244,96,49)" rx="2" ry="2" />
<text  x="308.00" y="47.5" >__check_obj..</text>
</g>
<g >
<title>[unknown] (1 samples, 8.33%)</title><rect x="305.0" y="357" width="98.3" height="15.0" fill="rgb(248,5,30)" rx="2" ry="2" />
<text  x="308.00" y="367.5" >[unknown]</text>
</g>
<g >
<title>seq_read (1 samples, 8.33%)</title><rect x="305.0" y="69" width="98.3" height="15.0" fill="rgb(217,7,16)" rx="2" ry="2" />
<text  x="308.00" y="79.5" >seq_read</text>
</g>
<g >
<title>__vunmap (1 samples, 8.33%)</title><rect x="108.3" y="229" width="98.4" height="15.0" fill="rgb(208,27,44)" rx="2" ry="2" />
<text  x="111.33" y="239.5" >__vunmap</text>
</g>
<g >
<title>[unknown] (1 samples, 8.33%)</title><rect x="305.0" y="261" width="98.3" height="15.0" fill="rgb(253,220,31)" rx="2" ry="2" />
<text  x="308.00" y="271.5" >[unknown]</text>
</g>
<g >
<title>hosteye (2 samples, 16.67%)</title><rect x="305.0" y="469" width="196.7" height="15.0" fill="rgb(242,114,40)" rx="2" ry="2" />
<text  x="308.00" y="479.5" >hosteye</text>
</g>
<g >
<title>worker_thread (1 samples, 8.33%)</title><rect x="698.3" y="421" width="98.4" height="15.0" fill="rgb(206,177,23)" rx="2" ry="2" />
<text  x="701.33" y="431.5" >worker_thread</text>
</g>
<g >
<title>[unknown] (1 samples, 8.33%)</title><rect x="305.0" y="293" width="98.3" height="15.0" fill="rgb(252,62,37)" rx="2" ry="2" />
<text  x="308.00" y="303.5" >[unknown]</text>
</g>
<g >
<title>__GI___open64 (1 samples, 8.33%)</title><rect x="403.3" y="453" width="98.4" height="15.0" fill="rgb(214,191,28)" rx="2" ry="2" />
<text  x="406.33" y="463.5" >__GI___open64</text>
</g>
</g>
</svg>
